<svg viewBox="0 0 208 208" height="300" width="300" xmlns="http://www.w3.org/2000/svg">
<title>Dog's Trust Home Page</title>
<g fill="none" fill-rule="evenodd">
<path d="M0 104C0 46.563 46.562 0 104 0s104 46.563 104 104-46.562 104-104 104S0 161.437 0 104" fill="#FFC800"/>
<path d="M159.266 148.331v-3.466h-2.917v-3.944h-3.753v3.944h-1.75v3.466h1.75v7.75c0 3.439 1.927 4.903 4.258 4.903.814 0 1.624-.224 2.412-.479v-3.183c-.457.309-.863.59-1.498.59-1.216 0-1.42-.788-1.42-1.549v-8.032h2.918zm-16.518 1.014c0-1.013.635-1.747 1.522-1.747 1.115 0 1.447.79 1.623 1.889l3.552-.478c-.43-2.735-2.435-4.481-4.921-4.481-2.765 0-5.224 1.858-5.224 5.044 0 6.144 6.873 3.888 6.873 6.65 0 1.213-.888 1.691-1.828 1.691-1.14 0-1.672-1.072-1.748-2.197l-3.527.421c.381 3.27 2.232 4.847 5.15 4.847 2.893 0 5.401-1.633 5.401-4.987 0-5.92-6.873-3.946-6.873-6.652zm-10.12 6.381c-.703.837-1.556 1.702-2.635 1.702-1.604 0-1.53-1.98-1.53-3.235v-9.395h-3.713v11.067c0 3.848 2.157 4.879 3.687 4.879 1.556 0 3.012-.863 4.19-1.95v1.616h3.714v-15.612h-3.713v10.928zm-14.887-8.099v-2.762h-3.755v15.782h3.755v-6.933c0-4.2 2.992-5.185 3.956-5.185.38 0 .736.084 1.09.17v-4.172h-.71c-1.724 0-2.89 1.211-4.336 3.1zm-3.402-8.906h-14.203v3.72h5.124v18.207h3.957V142.44h5.122v-3.72zm-21.413 10.062c0-1.574 1.216-2.304 2.505-2.304 1.467 0 2.403.758 3.188 2.051l1.39-1.209c-1.088-1.796-2.706-2.697-4.654-2.697-2.302 0-4.276 1.628-4.276 4.3 0 5.565 7.36 3.708 7.36 7.617 0 1.77-1.289 2.64-2.73 2.64-1.67 0-2.884-.899-3.643-2.501l-1.567 1.097c1.137 2.163 2.958 3.261 5.21 3.261 2.632 0 4.58-1.857 4.58-4.891 0-5.228-7.363-3.57-7.363-7.364zm-6.854 1.237c0-2.023-.987-3.738-2.959-3.738-1.896 0-3.086 1.77-3.086 3.765 0 1.94 1.087 3.656 2.909 3.656 2.024 0 3.136-1.548 3.136-3.683zm-6.93 11.946c0 2.135 2.831 2.247 4.171 2.247 1.42 0 3.924-.308 3.924-2.447 0-1.629-2.328-1.827-3.39-1.91l-2.074-.225c-1.064.226-2.632.928-2.632 2.335zM89.26 144.54v1.94h-.734c-.557 0-.911.027-1.417.337.581.955.86 2.05.86 3.204 0 3.007-1.997 5.339-4.705 5.339-.81 0-1.517-.169-2.251-.476-.43.391-1.19.898-1.19 1.657 0 1.968 9.31-.505 9.31 5.369 0 1.152-.33 4.048-5.92 4.048-4.552 0-5.968-1.97-5.968-3.88 0-1.601 1.265-2.473 2.428-3.035-.836-.366-1.744-1.042-1.744-2.165 0-1.376.96-1.797 1.744-2.838-1.012-1.322-1.542-2.249-1.542-4.076 0-3.147 2.123-5.34 4.932-5.34 1.113 0 2.123.366 3.035 1.096.91-.758 1.973-1.32 3.162-1.18zm-15.556 8.293c0-2.643-.583-6.353-3.618-6.353s-3.617 3.71-3.617 6.353c0 2.64.582 6.35 3.617 6.35s3.618-3.71 3.618-6.35zm1.973 0c0 5.814-2.48 8.206-5.59 8.206-3.113 0-5.591-2.392-5.591-8.206 0-5.819 2.478-8.208 5.59-8.208 3.111 0 5.591 2.39 5.591 8.208zm-15.581-3.375c0-5.592-2.027-8.712-6.098-8.768H51.09v17.932h1.947c4.907-.057 7.059-2.812 7.059-9.164zm2.073.084c0 6.97-2.58 11.047-8.828 11.047h-4.327v-21.866h4.858c5.717 0 8.297 4.581 8.297 10.82zM88.676 124.212c-11.038-5.03-18.473-14.627-18.648-23.978-.356.815-.8 2.186-.903 3.081a16.073 16.073 0 00-.102 1.778c0 8.517 6.955 16.783 18.673 21.733 5.072 2.14 10.399 2.347 11.97 1.295-.478-.172-1.086-.29-2.611-.763-.23-.067-5.998-2.064-8.379-3.146m7.908-42.59c-1.05.78-1.126-1.277-.37-2.732.257-.502.506-2.508.42-2.752-.084-.246.012-.852.25-.473.708 1.121.745 5.181-.3 5.957m-5.84-2.731c-.41-.127-1.105-.51-1.599-1.567.073-.898.76-1.849 1.636-2.49 0 0 1.229.988 1.474 1.23-.355.33-1.022 1.226-1.51 2.827m8.057.5c-.087-.305-.115-.722-.149-1.209-.108-1.615-.275-4.06-3.031-5.326-3.42-1.569-6.686 1.36-7.598 3.198a4.969 4.969 0 00-.506 2.241c0 .204.011.411.031.62.148 1.446 1.096 2.969 2.414 3.887 1.065.733 2.241.982 3.324.691 1.905-.502 3.356-.67 4.315-.781l.818-.102a.727.727 0 00.508-.347c.425-.663.104-2.085-.126-2.873m26.3 36.79c-.477 2.175-1.592 3.22-2.682 3.79-.21.11-.541.294-.984.328-1.39.114-2.85-.456-3.632-1.34-1.28-1.438-1.13-3.011-1.87-2.299-.68.652-1.27 1.558-3.262 2.86-3.914 2.566-8.496.877-10.392-.148-.253-.131-.399-.249-.45-.28-.65-.418-.937.22-.078 1.064 2.553 2.486 6.425 3.26 9.142 2.749 1.356-.259 3-.38 4.486-.43 1.484-.052 2.82-.027 3.566.024.48.033.904.018 1.287-.039a21.76 21.76 0 001.247-.267c1.114-.295 2.465-.957 3.192-2.014 2.463-3.569 2.03-6.703 1.721-7.439-.492-1.186-1.02 2.198-1.291 3.442M97.289 53.348c7.107-.562 12.047.381 15.86 1.465 3.814 1.082 6.155 3.01 5.886 2.412-1.513-2.145-4.372-3.225-7.227-4.152-2.862-.928-7.236-1.19-5.21-1.944 1.087-.406 5.68.033 3.411-.432-2.268-.467-8.11-.104-12.827 1.712-2.417.91-1.933 1.083.107.939m26.05 25.65c-.33-.177-.867-.65-1.103-1.78.228-.9.995-1.775 1.872-2.315 0 0 .888 1.151 1.057 1.426-.368.288-1.113 1.11-1.826 2.668m1.97-4.88c-1.856-.247-3.54.435-4.005 2.793-.446 2.295 1.293 6.436.959 7.223a.438.438 0 00-.045.17c-.085 1.149 1.338-.018 2.391-.308 1.083-.297 3.988-1.406 4.369-5.129.229-2.246-1.812-4.503-3.67-4.749m6.13 3.097c-.146 2.213.108 4.872-.87 6.535-.97 1.663-.97 4.632-.86 5.585.108.95.216-.237.86-2.02.652-1.781 1.627-2.851 2.056-4.872.433-2.02-1.078-6.892-1.187-5.228m-38.705 36.291c-1.188-2.663-3.501-2.975-5.418-4.954-1.918-1.986-2.37-5.377-5.274-8.062-.944-.87-3.672-5.817-1.385-.087 1.574 3.924 3.07 6.849 5.44 9.577 1.086 1.248 2.766 1.634 3.99 3.51 3.1 4.73 5.879 5.994 8.155 5.784.59-.055 1.156-.377.021-.641-1.569-.366-3.901-1.507-5.53-5.127m22.196-12.004c-.815 1.47-6.948 1.798-5.263.481 1.2-.933 2.814-2.031 4.003-1.936.709.058 1.567.906 1.26 1.455m9.132 1.405c-.295-2.01-1.127-4.82-10.36-4.922-2.295-.025-5.715 1.2-6.64 2.291-.931 1.089-1.93 1.886-1.39 3.284.54 1.406 4.344 3.105 2.695 3.658-1.644.552-.776 2.176.536 4.166 1.31 1.993 3.67 3.32 5.412 3.118 1.748-.208 3.21-1.382 3.9-.618 1.333 1.489 3.652-.852 4.921-4.062.703-1.776.975-2.698.347-3.398-.278-.318-.436-.758-.406-.963.087-.62 1.444.59.985-2.554m-49.537-2.81c1.329-1.183 4.418-4.263 3.974-9.083-.438-4.817-2.823-10.767-2.645-12.304.176-1.538.086-2.357.086-2.357-2.207 4.511-.217 8.126.378 13.651.593 5.522-3.119 11.282-1.793 10.094m91.34-38.204c.791-1.237 2.904-5.846-2.668-5.71-4.751.118-6.527.172-10.016-2.598-4.171-3.314-8.283-4.88-11.691-4.817-2.888.05-5.238 1.386-6.998 2.61-3.77 2.618-7.285 1.346-10.36 3.143-4.273 2.498 1.948 4.53 3.85 9.356 1.023 2.579 1.782 5.968 1.904 8.845.117 2.754 1.717 3.533 4.119.449 4-5.129 6.005-7.252 18.152-5.229 6.153 1.024 11.596-2.748 13.708-6.049M72.68 77.377c-3.075 2.973-11.248.424-17.248-5.662-6.001-6.089-12.594-.08-13.904-4.074-1.316-3.997 5.31-13.44 16.21-11.87 10.898 1.568 18.812-5.826 27.13-3.011 2.939.996 3.352 2.565 2.578 5.645-.689 2.748-4.082 8.844-8.818 10.87s-2.87 5.128-5.948 8.102" fill="#000"/>
</g>
</svg>